Simulation
nRows=23
nColumns=15
endheader
time  TH_x TH_y TH_z SC_y  SC_z  SC_x  AC_y  AC_z  AC_x  GH_y  GH_z  GH_yy  EL_x  PS_y
1.3949999999999996  0.000000  0.000000  0.000000  -26.800617270171195  15.403458837626058  32.45928319341406  72.48609298455713  8.597613787179283  6.637624829015092  31.61095786494216  62.32468792710803  -51.98567482016167  26.01111505318199  120.000000
1.4228999999999996  0.000000  0.000000  0.000000  -26.976470523380073  15.515741592741703  33.071184724084695  72.57824310419637  8.224462004763097  6.784057616629503  31.43765440546776  62.20327207318558  -52.16950777530564  26.192919986792617  120.000000
1.4507999999999994  0.000000  0.000000  0.000000  -27.068600826436228  15.529474647781305  33.542462204538936  72.64636661336155  7.871223259153394  6.75375444190651  31.427364768231264  62.041359430603585  -52.38606971234503  26.33104378666873  120.000000
1.4786999999999995  0.000000  0.000000  0.000000  -27.086152074886513  15.422360203831587  33.86874813167375  72.72447303041142  7.549705123479739  6.5468897160715995  31.568130284879533  61.845218665729085  -52.63299781202537  26.424455353804152  120.000000
1.5065999999999995  0.000000  0.000000  0.000000  -27.02609860117268  15.193248932246457  34.042989895484354  72.81314354361426  7.265345367456727  6.165468383910788  31.84585371567434  61.62518543331173  -52.901775287703586  26.473413733248655  120.000000
1.5344999999999995  0.000000  0.000000  0.000000  -26.876741204058032  14.86496740379384  34.05898022054061  72.8779814728285  7.01730766219112  5.613158714965673  32.24589715862053  61.39525581808852  -53.17885062540988  26.480123403199528  120.000000
1.5623999999999996  0.000000  0.000000  0.000000  -26.6300945171577  14.460374299784515  33.91307688238981  72.88940781518139  6.8036370392054595  4.899928978010487  32.74607780214382  61.17007117425947  -53.44435943999456  26.44520483860548  120.000000
1.5902999999999994  0.000000  0.000000  0.000000  -26.28808210041408  13.99635100769552  33.60879022508946  72.83700496381309  6.623849571799645  4.044971937753616  33.317340060055955  60.96219849863424  -53.67583838417331  26.369390368054866  120.000000
1.6181999999999994  0.000000  0.000000  0.000000  -25.856596308896567  13.481346918259307  33.152805364532405  72.72232027167499  6.480169017366842  3.07264648413561  33.931608379313644  60.78033093288231  -53.8525250134955  26.25390546738128  120.000000
1.6460999999999995  0.000000  0.000000  0.000000  -25.348706598433342  12.919176718793342  32.5585499697573  72.55405981595128  6.3768738040098905  2.0079046689835716  34.56405152786983  60.62810502371841  -53.95988137287595  26.10143857834764  120.000000
1.6739999999999995  0.000000  0.000000  0.000000  -24.78018288644881  12.310921551620343  31.839224727935502  72.34265577327231  6.318174365809782  0.874321345212442  35.194662322754134  60.505970696993046  -53.99080773904528  25.91587594779178  120.000000
1.7018999999999995  0.000000  0.000000  0.000000  -24.170911266821513  11.657370445007512  31.0111493555611  72.09915075424964  6.30778680657402  -0.3075198070978268  35.80895403264748  60.41022051625661  -53.945890365288996  25.70141630072571  120.000000
1.7297999999999993  0.000000  0.000000  0.000000  -23.539711606368513  10.959432337248053  30.087388236286216  71.83289625333153  6.347253491448374  -1.5204253129989131  36.397123971727595  60.33466536959898  -53.830442375540514  25.462467064811122  120.000000
1.7576999999999994  0.000000  0.000000  0.000000  -22.906709138973653  10.220141763165334  29.08133086434006  71.55078686457979  6.434845256577372  -2.7507851945451494  36.95238409239639  60.26976070825181  -53.651121897386396  25.20144124082204  120.000000
1.7855999999999994  0.000000  0.000000  0.000000  -22.287763591697573  9.443320168233852  28.00258319331669  71.25589282929825  6.565120966659012  -3.9875727488779216  37.46957740856389  60.20340064587875  -53.41243055603862  24.918597243258176  120.000000
1.8134999999999994  0.000000  0.000000  0.000000  -21.695380379631676  8.63494167199001  26.861550358979603  70.94848728408662  6.7302628576434484  -5.219385848854441  37.94807014774347  60.12288084603916  -53.11564051849372  24.612635432936752  120.000000
1.8413999999999995  0.000000  0.000000  0.000000  -21.13424588550811  7.80220755860716  25.66729978272192  70.62714843347348  6.922098200253212  -6.4334563327751475  38.393057241785115  60.01578848965677  -52.759606376345815  24.282056699480055  120.000000
1.8692999999999993  0.000000  0.000000  0.000000  -20.60388737597952  6.954257651896863  24.430791196606638  70.28747680037739  7.131974950793045  -7.616149604987078  38.81356102931391  59.86927868508236  -52.340859192554404  23.92667248345751  120.000000
1.8971999999999993  0.000000  0.000000  0.000000  -20.09962015639788  6.1013824887773955  23.16135082565995  69.92367179419674  7.35113553746009  -8.753911881204193  39.22017313886458  59.66892920513257  -51.856048538626396  23.548281601771105  120.000000
1.9250999999999994  0.000000  0.000000  0.000000  -19.616210191473982  5.255718185771777  21.869103720793415  69.52825018510926  7.570486949646049  -9.833806131248098  39.62331277670665  59.39812319020204  -51.30330782938958  23.152595443913878  120.000000
1.9529999999999994  0.000000  0.000000  0.000000  -19.14732143612688  4.429338583816536  20.562188256529577  69.09399528283613  7.781344825948361  -10.844070182109252  40.03163703149347  59.037659156732616  -50.68394567624575  22.750060683479994  120.000000
1.9808999999999994  0.000000  0.000000  0.000000  -18.689236242073427  3.634232417802059  19.248981196440923  68.614436246487  7.975694031520442  -11.774063068506088  40.45144435553225  58.56693917298267  -50.00265663090471  22.355785070073196  120.000000
2.0087999999999995  0.000000  0.000000  0.000000  -18.23872131070804  2.8805152826335902  17.936181098778977  68.08502283681153  8.146865517086544  -12.614633953245356  40.88508116429943  57.96519918139558  -49.266246423203825  21.9877780904648  120.000000
